<mxfile host="Electron" modified="2024-04-06T22:23:25.664Z" agent="Mozilla/5.0 (Macintosh; Intel Mac OS X 10_15_7) AppleWebKit/537.36 (KHTML, like Gecko) draw.io/24.1.0 Chrome/120.0.6099.109 Electron/28.1.0 Safari/537.36" etag="vhxjRXYc0JFhH2SCxvlj" version="24.1.0" type="device">
  <diagram name="Page-1" id="Mz0jm2gexA64UUmkdMRi">
    <mxGraphModel dx="1482" dy="854" grid="1" gridSize="10" guides="1" tooltips="1" connect="1" arrows="1" fold="1" page="1" pageScale="1" pageWidth="850" pageHeight="1100" math="0" shadow="0">
      <root>
        <mxCell id="0" />
        <mxCell id="1" parent="0" />
        <mxCell id="oHmuEAYzxzZG066-jHSD-11" style="edgeStyle=orthogonalEdgeStyle;rounded=0;orthogonalLoop=1;jettySize=auto;html=1;entryX=0;entryY=0.5;entryDx=0;entryDy=0;" edge="1" parent="1" source="oHmuEAYzxzZG066-jHSD-6" target="oHmuEAYzxzZG066-jHSD-5">
          <mxGeometry relative="1" as="geometry" />
        </mxCell>
        <mxCell id="oHmuEAYzxzZG066-jHSD-6" value="" style="whiteSpace=wrap;html=1;" vertex="1" parent="1">
          <mxGeometry x="28" y="115" width="300" height="280" as="geometry" />
        </mxCell>
        <mxCell id="oHmuEAYzxzZG066-jHSD-1" value="/ping" style="whiteSpace=wrap;html=1;" vertex="1" parent="1">
          <mxGeometry x="200.00000000000006" y="290" width="80" height="50" as="geometry" />
        </mxCell>
        <mxCell id="oHmuEAYzxzZG066-jHSD-2" value="" style="image;aspect=fixed;html=1;points=[];align=center;fontSize=12;image=img/lib/azure2/devops/API_Connections.svg;" vertex="1" parent="1">
          <mxGeometry x="60" y="210" width="120.04" height="80" as="geometry" />
        </mxCell>
        <mxCell id="oHmuEAYzxzZG066-jHSD-3" value="/delay" style="whiteSpace=wrap;html=1;" vertex="1" parent="1">
          <mxGeometry x="200.00000000000006" y="184" width="80" height="50" as="geometry" />
        </mxCell>
        <mxCell id="oHmuEAYzxzZG066-jHSD-17" style="edgeStyle=orthogonalEdgeStyle;rounded=0;orthogonalLoop=1;jettySize=auto;html=1;" edge="1" parent="1" source="oHmuEAYzxzZG066-jHSD-4" target="oHmuEAYzxzZG066-jHSD-9">
          <mxGeometry relative="1" as="geometry" />
        </mxCell>
        <mxCell id="oHmuEAYzxzZG066-jHSD-4" value="" style="sketch=0;outlineConnect=0;fontColor=#232F3E;gradientColor=none;fillColor=#01A88D;strokeColor=none;dashed=0;verticalLabelPosition=bottom;verticalAlign=top;align=center;html=1;fontSize=12;fontStyle=0;aspect=fixed;shape=mxgraph.aws4.application_discovery_service_aws_agentless_collector;" vertex="1" parent="1">
          <mxGeometry x="715" y="217" width="78" height="78" as="geometry" />
        </mxCell>
        <mxCell id="oHmuEAYzxzZG066-jHSD-7" value="PingAckAPI" style="text;html=1;align=center;verticalAlign=middle;resizable=0;points=[];autosize=1;strokeColor=none;fillColor=none;" vertex="1" parent="1">
          <mxGeometry x="125" y="365" width="90" height="30" as="geometry" />
        </mxCell>
        <mxCell id="oHmuEAYzxzZG066-jHSD-12" value="" style="group" vertex="1" connectable="0" parent="1">
          <mxGeometry x="960" y="196" width="400" height="120" as="geometry" />
        </mxCell>
        <mxCell id="oHmuEAYzxzZG066-jHSD-9" value="" style="whiteSpace=wrap;html=1;fillColor=#FFFFFF;" vertex="1" parent="oHmuEAYzxzZG066-jHSD-12">
          <mxGeometry width="400" height="120" as="geometry" />
        </mxCell>
        <mxCell id="oHmuEAYzxzZG066-jHSD-8" value="" style="shape=image;verticalLabelPosition=bottom;labelBackgroundColor=default;verticalAlign=top;aspect=fixed;imageAspect=0;image=https://www.jaegertracing.io/img/jaeger-logo.png;" vertex="1" parent="oHmuEAYzxzZG066-jHSD-12">
          <mxGeometry x="24" y="1.5" width="340.66" height="111" as="geometry" />
        </mxCell>
        <mxCell id="oHmuEAYzxzZG066-jHSD-13" value="" style="group" vertex="1" connectable="0" parent="1">
          <mxGeometry x="404" y="225" width="150" height="61" as="geometry" />
        </mxCell>
        <mxCell id="oHmuEAYzxzZG066-jHSD-10" value="" style="whiteSpace=wrap;html=1;fillColor=#FFFFFF;" vertex="1" parent="oHmuEAYzxzZG066-jHSD-13">
          <mxGeometry width="150" height="61" as="geometry" />
        </mxCell>
        <mxCell id="oHmuEAYzxzZG066-jHSD-5" value="" style="shape=image;verticalLabelPosition=bottom;labelBackgroundColor=default;verticalAlign=top;aspect=fixed;imageAspect=0;image=https://upload.wikimedia.org/wikipedia/commons/b/b0/EBPF_logo.png;" vertex="1" parent="oHmuEAYzxzZG066-jHSD-13">
          <mxGeometry x="2" y="5" width="143.58" height="50" as="geometry" />
        </mxCell>
        <mxCell id="oHmuEAYzxzZG066-jHSD-15" style="edgeStyle=orthogonalEdgeStyle;rounded=0;orthogonalLoop=1;jettySize=auto;html=1;" edge="1" parent="1" source="oHmuEAYzxzZG066-jHSD-10" target="oHmuEAYzxzZG066-jHSD-4">
          <mxGeometry relative="1" as="geometry" />
        </mxCell>
        <mxCell id="oHmuEAYzxzZG066-jHSD-18" value="OTEL COLLECTOR" style="text;html=1;align=center;verticalAlign=middle;resizable=0;points=[];autosize=1;strokeColor=none;fillColor=none;" vertex="1" parent="1">
          <mxGeometry x="697" y="310" width="130" height="30" as="geometry" />
        </mxCell>
        <mxCell id="oHmuEAYzxzZG066-jHSD-19" value="&lt;font style=&quot;font-size: 36px;&quot;&gt;Flow of traces&lt;/font&gt;" style="text;html=1;align=center;verticalAlign=middle;resizable=0;points=[];autosize=1;strokeColor=none;fillColor=none;" vertex="1" parent="1">
          <mxGeometry x="590" y="400" width="250" height="60" as="geometry" />
        </mxCell>
      </root>
    </mxGraphModel>
  </diagram>
</mxfile>
